<?xml version="1.0" encoding="UTF-8" standalone="no"?>
<!-- Created with Inkscape (http://www.inkscape.org/) -->

<svg
   width="145.61192mm"
   height="288.33752mm"
   viewBox="0 0 145.61192 288.33752"
   version="1.1"
   id="svg18353"
   sodipodi:docname="hour-hand2.svg"
   inkscape:version="1.2.2 (b0a84865, 2022-12-01)"
   xmlns:inkscape="http://www.inkscape.org/namespaces/inkscape"
   xmlns:sodipodi="http://sodipodi.sourceforge.net/DTD/sodipodi-0.dtd"
   xmlns:xlink="http://www.w3.org/1999/xlink"
   xmlns="http://www.w3.org/2000/svg"
   xmlns:svg="http://www.w3.org/2000/svg">
  <sodipodi:namedview
     id="namedview21558"
     pagecolor="#505050"
     bordercolor="#eeeeee"
     borderopacity="1"
     inkscape:showpageshadow="0"
     inkscape:pageopacity="0"
     inkscape:pagecheckerboard="0"
     inkscape:deskcolor="#505050"
     inkscape:document-units="mm"
     showgrid="false"
     inkscape:zoom="2.6403694"
     inkscape:cx="257.16098"
     inkscape:cy="117.97592"
     inkscape:window-width="1309"
     inkscape:window-height="845"
     inkscape:window-x="124"
     inkscape:window-y="38"
     inkscape:window-maximized="0"
     inkscape:current-layer="g1461" />
  <defs
     id="defs18350">
    <linearGradient
       id="linearGradient17030">
      <stop
         style="stop-color:#ffffff;stop-opacity:1;"
         offset="0"
         id="stop17026" />
      <stop
         style="stop-color:#ffffff;stop-opacity:1;"
         offset="1"
         id="stop17028" />
    </linearGradient>
    <linearGradient
       xlink:href="#linearGradient8420"
       id="linearGradient1557"
       gradientUnits="userSpaceOnUse"
       gradientTransform="rotate(-57.083313,779.45863,319.16498)"
       x1="786.28192"
       y1="214.74153"
       x2="762.19397"
       y2="227.88318" />
    <linearGradient
       id="linearGradient8420">
      <stop
         style="stop-color:#892942;stop-opacity:1;"
         offset="0"
         id="stop8416" />
      <stop
         style="stop-color:#590216;stop-opacity:1;"
         offset="1"
         id="stop8418" />
    </linearGradient>
    <filter
       style="color-interpolation-filters:sRGB"
       id="filter8424"
       x="-0.022714494"
       y="-0.034221979"
       width="1.045429"
       height="1.068444">
      <feGaussianBlur
         stdDeviation="1.1548051"
         id="feGaussianBlur8426" />
    </filter>
    <linearGradient
       xlink:href="#linearGradient8420"
       id="linearGradient18575"
       gradientUnits="userSpaceOnUse"
       gradientTransform="rotate(-57.083313,779.45863,319.16498)"
       x1="786.28192"
       y1="214.74153"
       x2="762.19397"
       y2="227.88318" />
    <filter
       inkscape:collect="always"
       style="color-interpolation-filters:sRGB"
       id="filter19285"
       x="-0.057114811"
       y="-0.091657405"
       width="1.1142296"
       height="1.1833148">
      <feGaussianBlur
         inkscape:collect="always"
         stdDeviation="3.1600921"
         id="feGaussianBlur19287" />
    </filter>
  </defs>
  <g
     id="layer1"
     transform="translate(-33.211699,0.71840762)">
    <g
       id="g18946">
      <g
         id="g1461"
         transform="rotate(57.269614,604.19545,-384.53239)">
        <path
           id="path19275"
           style="mix-blend-mode:normal;fill:#000000;fill-opacity:1;stroke:none;stroke-width:2;stroke-linecap:square;stroke-linejoin:bevel;stroke-dasharray:none;stroke-opacity:1;paint-order:fill markers stroke;filter:url(#filter19285)"
           inkscape:transform-center-x="-12.641007"
           inkscape:transform-center-y="-73.988238"
           d="m 659.33219,242.19992 c 15.46736,15.46736 41.9577,37.93464 47.81648,34.5664 2.40935,-0.67705 64.68077,40.20569 64.68077,40.20569 l 0.33301,-0.51947 c -0.80298,2.82865 0.34069,5.84949 2.81576,7.43695 3.10168,1.98828 7.22821,1.08598 9.21649,-2.01569 1.98829,-3.10168 1.08547,-7.22829 -2.0162,-9.21658 -2.47461,-1.5861 -5.69565,-1.36547 -7.93108,0.54297 l 0.0696,-0.10846 c 0,0 -63.11714,-39.6607 -63.53842,-41.98714 0.59419,-7.03216 -30.78282,-21.98768 -51.44642,-28.90468 z m 14.84904,9.41384 c -37.62011,33.80048 -18.81006,16.90024 0,0 z"
           sodipodi:nodetypes="sccccscccccscc" />
        <path
           id="path1457-2"
           style="fill:#ffffff;fill-opacity:1;stroke:none;stroke-width:2;stroke-linecap:square;stroke-linejoin:bevel;stroke-dasharray:none;stroke-opacity:1;paint-order:fill markers stroke"
           inkscape:transform-center-x="-12.641007"
           inkscape:transform-center-y="-73.988238"
           d="m 659.92695,243.20142 c 19.00767,19.00767 41.67159,38.37979 47.53037,35.01155 2.40935,-0.67705 64.96688,39.76054 64.96688,39.76054 l 0.33301,-0.51947 c -0.80298,2.82865 0.34069,5.84949 2.81576,7.43695 3.10168,1.98828 7.22821,1.08598 9.21649,-2.01569 1.98829,-3.10168 1.08547,-7.22829 -2.0162,-9.21658 -2.47461,-1.5861 -5.69565,-1.36547 -7.93108,0.54297 l 0.0696,-0.10846 c 0,0 -62.83103,-40.10585 -63.25231,-42.43229 0.59419,-7.03216 -30.53909,-21.44022 -51.73253,-28.45953 z m 14.84904,9.41384 c -37.62011,33.80048 -18.81006,16.90024 0,0 z"
           sodipodi:nodetypes="sccccscccccscc" />
        <path
           id="path21906"
           style="fill:#0d3d64;fill-opacity:1;stroke-width:1.11;stroke-linecap:square;stroke-linejoin:bevel;paint-order:fill markers stroke"
           transform="rotate(-57.269615)"
           d="m 156.4338,725.31642 c 0.41955,3.85896 2.34282,19.1931 -3.98429,19.19311 -5.9855,10e-6 -4.61271,-14.91643 -4.16176,-18.88256 0.45096,-3.96612 2.85868,-24.64701 4.10457,-24.64646 1.24666,5.5e-4 3.62193,20.47695 4.04148,24.33591 z"
           sodipodi:nodetypes="zszsz" />
      </g>
      <g
         id="g18573"
         transform="matrix(0.54068653,-0.84122415,-0.84122415,-0.54068653,-45.962825,971.78542)"
         style="opacity:0">
        <path
           id="path18569"
           style="opacity:1;fill:url(#linearGradient18575);fill-opacity:1;stroke:none;stroke-width:2;stroke-linecap:square;stroke-linejoin:bevel;stroke-dasharray:none;stroke-opacity:1;paint-order:fill markers stroke"
           d="m 708.07437,277.45893 c 2.41236,-0.66631 64.50088,40.49342 64.50088,40.49342 l 0.3353,-0.51797 c -0.81558,2.82504 0.31473,5.85092 2.7827,7.4494 3.09278,2.00208 7.22299,1.1179 9.22507,-1.97488 2.00209,-3.09278 1.11791,-7.22298 -1.97487,-9.22507 -2.46751,-1.59712 -5.68957,-1.39103 -7.93349,0.50743 l 0.0699,-0.10801 c 0,0 -62.93975,-39.94199 -63.35065,-42.27028 0.73168,-6.14178 -31.76192,-19.35955 -51.31671,-29.13349 17.08011,13.46745 42.72889,38.45924 47.66185,34.77945 z" />
        <path
           id="path18571"
           style="opacity:1;fill:#030303;fill-opacity:0.251356;stroke:none;stroke-width:2;stroke-linecap:square;stroke-linejoin:bevel;stroke-dasharray:none;stroke-opacity:1;paint-order:fill markers stroke;filter:url(#filter8424)"
           d="m 709.17757,278.01342 c 2.41236,-0.66631 64.50088,40.49342 64.50088,40.49342 l 0.3353,-0.51797 c -0.81558,2.82504 0.31473,5.85092 2.7827,7.4494 3.09278,2.00208 7.22299,1.1179 9.22507,-1.97488 2.00209,-3.09278 1.11791,-7.22298 -1.97487,-9.22507 -2.46751,-1.59712 -5.68957,-1.39103 -7.93349,0.50743 l 0.0699,-0.10801 c 0,0 -62.93975,-39.94199 -63.35065,-42.27028 0.73168,-6.14178 -31.76192,-19.35955 -51.31671,-29.13349 17.08011,13.46745 42.72889,38.45924 47.66185,34.77945 z" />
      </g>
    </g>
  </g>
</svg>
