<?xml version="1.0" encoding="UTF-8" standalone="no"?>
<!-- Created with Inkscape (http://www.inkscape.org/) -->

<svg
   width="145.61192mm"
   height="288.33752mm"
   viewBox="0 0 145.61192 288.33752"
   version="1.1"
   id="svg18353"
   sodipodi:docname="hour-hand.svg"
   inkscape:version="1.2.2 (b0a84865, 2022-12-01)"
   xmlns:inkscape="http://www.inkscape.org/namespaces/inkscape"
   xmlns:sodipodi="http://sodipodi.sourceforge.net/DTD/sodipodi-0.dtd"
   xmlns:xlink="http://www.w3.org/1999/xlink"
   xmlns="http://www.w3.org/2000/svg"
   xmlns:svg="http://www.w3.org/2000/svg">
  <sodipodi:namedview
     id="namedview21558"
     pagecolor="#505050"
     bordercolor="#eeeeee"
     borderopacity="1"
     inkscape:showpageshadow="0"
     inkscape:pageopacity="0"
     inkscape:pagecheckerboard="0"
     inkscape:deskcolor="#505050"
     inkscape:document-units="mm"
     showgrid="false"
     inkscape:zoom="2.7892346"
     inkscape:cx="258.85238"
     inkscape:cy="125.30319"
     inkscape:window-width="1309"
     inkscape:window-height="845"
     inkscape:window-x="124"
     inkscape:window-y="38"
     inkscape:window-maximized="0"
     inkscape:current-layer="g1461" />
  <defs
     id="defs18350">
    <linearGradient
       xlink:href="#linearGradient8420"
       id="linearGradient1557"
       gradientUnits="userSpaceOnUse"
       gradientTransform="rotate(-57.083313,779.45863,319.16498)"
       x1="786.28192"
       y1="214.74153"
       x2="762.19397"
       y2="227.88318" />
    <linearGradient
       id="linearGradient8420">
      <stop
         style="stop-color:#892942;stop-opacity:1;"
         offset="0"
         id="stop8416" />
      <stop
         style="stop-color:#590216;stop-opacity:1;"
         offset="1"
         id="stop8418" />
    </linearGradient>
    <filter
       style="color-interpolation-filters:sRGB"
       id="filter8424"
       x="-0.022070345"
       y="-0.033281357"
       width="1.0441407"
       height="1.0665627">
      <feGaussianBlur
         stdDeviation="1.1548051"
         id="feGaussianBlur8426" />
    </filter>
    <linearGradient
       xlink:href="#linearGradient8420"
       id="linearGradient18575"
       gradientUnits="userSpaceOnUse"
       gradientTransform="rotate(-57.083313,779.45863,319.16498)"
       x1="786.28192"
       y1="214.74153"
       x2="762.19397"
       y2="227.88318" />
    <linearGradient
       inkscape:collect="always"
       xlink:href="#linearGradient8420"
       id="linearGradient1768"
       gradientUnits="userSpaceOnUse"
       gradientTransform="rotate(-57.33865,779.37718,319.29347)"
       x1="786.28192"
       y1="214.74153"
       x2="762.19397"
       y2="227.88318" />
  </defs>
  <g
     id="layer1"
     transform="translate(-33.211699,0.71840762)">
    <g
       id="g18946">
      <g
         id="g1461"
         transform="rotate(57.269614,604.19545,-384.53239)">
        <path
           id="path1457-2"
           style="fill:url(#linearGradient1768);fill-opacity:1;stroke:none;stroke-width:2;stroke-linecap:square;stroke-linejoin:bevel;stroke-dasharray:none;stroke-opacity:1;paint-order:fill markers stroke"
           inkscape:transform-center-x="-12.641007"
           inkscape:transform-center-y="-73.988238"
           d="m 659.92695,243.20142 c 17.13994,13.39117 41.9577,37.93464 47.81648,34.5664 2.40935,-0.67705 64.68077,40.20569 64.68077,40.20569 l 0.33301,-0.51947 c -0.80298,2.82865 0.34069,5.84949 2.81576,7.43695 3.10168,1.98828 7.22821,1.08598 9.21649,-2.01569 1.98829,-3.10168 1.08547,-7.22829 -2.0162,-9.21658 -2.47461,-1.5861 -5.69565,-1.36547 -7.93108,0.54297 l 0.0696,-0.10846 c 0,0 -63.11714,-39.6607 -63.53842,-41.98714 0.59419,-7.03216 -31.84828,-19.218 -51.44642,-28.90468 z m 14.84904,9.41384 c -37.62011,33.80048 -18.81006,16.90024 0,0 z"
           sodipodi:nodetypes="sccccscccccscc" />
        <path
           id="path1459"
           style="opacity:1;fill:#030303;fill-opacity:0.251356;stroke:none;stroke-width:2;stroke-linecap:square;stroke-linejoin:bevel;stroke-dasharray:none;stroke-opacity:1;paint-order:fill markers stroke;filter:url(#filter8424)"
           d="m 663.96914,245.17573 c 17.08008,13.46742 39.61262,36.4562 44.54556,32.77641 2.41236,-0.66631 67.61702,42.49617 67.61702,42.49617 l 0.33535,-0.51793 c -0.81558,2.82504 0.31472,5.85083 2.78268,7.44931 3.09278,2.00207 7.22277,1.11835 9.22485,-1.97443 2.00209,-3.09277 1.11791,-7.22304 -1.97487,-9.22512 -2.4675,-1.59712 -5.68946,-1.39144 -7.93338,0.50702 l 0.07,-0.10797 c 0,0 -66.05558,-41.94457 -66.46648,-44.27285 0.73168,-6.14177 -28.64599,-17.35669 -48.20074,-27.13061 z m 14.44567,9.73567 c 0.55146,-0.87537 9.40458,5.76333 16.6206,10.40134 7.21602,4.63801 13.79868,7.25762 12.93782,8.59697 -0.86086,1.33937 -7.99341,-0.95099 -15.20944,-5.589 -7.21601,-4.63801 -14.81444,-12.67051 -14.34898,-13.40931 z"
           sodipodi:nodetypes="sccccsccccsscsssc" />
      </g>
      <g
         id="g18573"
         transform="matrix(0.54068653,-0.84122415,-0.84122415,-0.54068653,-45.962825,971.78542)"
         style="opacity:0">
        <path
           id="path18569"
           style="opacity:1;fill:url(#linearGradient18575);fill-opacity:1;stroke:none;stroke-width:2;stroke-linecap:square;stroke-linejoin:bevel;stroke-dasharray:none;stroke-opacity:1;paint-order:fill markers stroke"
           d="m 708.07437,277.45893 c 2.41236,-0.66631 64.50088,40.49342 64.50088,40.49342 l 0.3353,-0.51797 c -0.81558,2.82504 0.31473,5.85092 2.7827,7.4494 3.09278,2.00208 7.22299,1.1179 9.22507,-1.97488 2.00209,-3.09278 1.11791,-7.22298 -1.97487,-9.22507 -2.46751,-1.59712 -5.68957,-1.39103 -7.93349,0.50743 l 0.0699,-0.10801 c 0,0 -62.93975,-39.94199 -63.35065,-42.27028 0.73168,-6.14178 -31.76192,-19.35955 -51.31671,-29.13349 17.08011,13.46745 42.72889,38.45924 47.66185,34.77945 z" />
        <path
           id="path18571"
           style="opacity:1;fill:#030303;fill-opacity:0.251356;stroke:none;stroke-width:2;stroke-linecap:square;stroke-linejoin:bevel;stroke-dasharray:none;stroke-opacity:1;paint-order:fill markers stroke;filter:url(#filter8424)"
           d="m 709.17757,278.01342 c 2.41236,-0.66631 64.50088,40.49342 64.50088,40.49342 l 0.3353,-0.51797 c -0.81558,2.82504 0.31473,5.85092 2.7827,7.4494 3.09278,2.00208 7.22299,1.1179 9.22507,-1.97488 2.00209,-3.09278 1.11791,-7.22298 -1.97487,-9.22507 -2.46751,-1.59712 -5.68957,-1.39103 -7.93349,0.50743 l 0.0699,-0.10801 c 0,0 -62.93975,-39.94199 -63.35065,-42.27028 0.73168,-6.14178 -31.76192,-19.35955 -51.31671,-29.13349 17.08011,13.46745 42.72889,38.45924 47.66185,34.77945 z" />
      </g>
    </g>
  </g>
</svg>
