<?xml version="1.0" encoding="UTF-8" standalone="no"?>
<!-- Created with Inkscape (http://www.inkscape.org/) -->

<svg
   width="145.61192mm"
   height="288.33752mm"
   viewBox="0 0 145.61192 288.33752"
   version="1.1"
   id="svg18353"
   sodipodi:docname="hour-hand.svg"
   inkscape:version="1.2.2 (b0a84865, 2022-12-01)"
   xmlns:inkscape="http://www.inkscape.org/namespaces/inkscape"
   xmlns:sodipodi="http://sodipodi.sourceforge.net/DTD/sodipodi-0.dtd"
   xmlns:xlink="http://www.w3.org/1999/xlink"
   xmlns="http://www.w3.org/2000/svg"
   xmlns:svg="http://www.w3.org/2000/svg">
  <sodipodi:namedview
     id="namedview21558"
     pagecolor="#505050"
     bordercolor="#eeeeee"
     borderopacity="1"
     inkscape:showpageshadow="0"
     inkscape:pageopacity="0"
     inkscape:pagecheckerboard="0"
     inkscape:deskcolor="#505050"
     inkscape:document-units="mm"
     showgrid="false"
     inkscape:zoom="3.2569063"
     inkscape:cx="259.60219"
     inkscape:cy="142.00593"
     inkscape:window-width="1309"
     inkscape:window-height="845"
     inkscape:window-x="170"
     inkscape:window-y="38"
     inkscape:window-maximized="0"
     inkscape:current-layer="g1461" />
  <defs
     id="defs18350">
    <linearGradient
       xlink:href="#linearGradient8420"
       id="linearGradient1557"
       gradientUnits="userSpaceOnUse"
       gradientTransform="rotate(-57.083313,779.45863,319.16498)"
       x1="786.28192"
       y1="214.74153"
       x2="762.19397"
       y2="227.88318" />
    <linearGradient
       id="linearGradient8420">
      <stop
         style="stop-color:#892942;stop-opacity:1;"
         offset="0"
         id="stop8416" />
      <stop
         style="stop-color:#590216;stop-opacity:1;"
         offset="1"
         id="stop8418" />
    </linearGradient>
    <filter
       style="color-interpolation-filters:sRGB"
       id="filter8424"
       x="-0.022070347"
       y="-0.033281355"
       width="1.0441407"
       height="1.0665627">
      <feGaussianBlur
         stdDeviation="1.1548051"
         id="feGaussianBlur8426" />
    </filter>
    <linearGradient
       xlink:href="#linearGradient8420"
       id="linearGradient18575"
       gradientUnits="userSpaceOnUse"
       gradientTransform="rotate(-57.083313,779.45863,319.16498)"
       x1="786.28192"
       y1="214.74153"
       x2="762.19397"
       y2="227.88318" />
  </defs>
  <g
     id="layer1"
     transform="translate(-33.211699,0.71840762)">
    <g
       id="g18946">
      <g
         id="g1461"
         transform="rotate(57.269614,604.19545,-384.53239)">
        <path
           id="path1457"
           style="opacity:1;fill:url(#linearGradient1557);fill-opacity:1;stroke:none;stroke-width:2;stroke-linecap:square;stroke-linejoin:bevel;stroke-dasharray:none;stroke-opacity:1;paint-order:fill markers stroke"
           d="m 660.41221,242.67946 c 17.10523,13.81476 37.5564,36.79478 44.54599,32.77669 2.34226,-0.50992 67.61702,42.49617 67.61702,42.49617 l 0.33535,-0.51793 c -0.81558,2.82504 0.31471,5.85083 2.78268,7.44931 3.09278,2.00208 7.22305,1.11791 9.22513,-1.97486 2.00208,-3.09278 1.11791,-7.22304 -1.97487,-9.22513 -2.46751,-1.59712 -5.68974,-1.391 -7.93366,0.50746 l 0.07,-0.10797 c 0,0 -66.05601,-41.94484 -66.46691,-44.27313 0.22932,-8.4517 -28.64597,-17.35668 -48.20074,-27.13061 z"
           sodipodi:nodetypes="cccccscccccc" />
        <path
           id="path1459"
           style="opacity:1;fill:#030303;fill-opacity:0.251356;stroke:none;stroke-width:2;stroke-linecap:square;stroke-linejoin:bevel;stroke-dasharray:none;stroke-opacity:1;paint-order:fill markers stroke;filter:url(#filter8424)"
           d="m 661.51594,243.23406 c 17.08009,13.46744 39.6126,36.4562 44.54555,32.77641 2.41236,-0.66631 67.61702,42.49617 67.61702,42.49617 l 0.33535,-0.51793 c -0.81558,2.82504 0.31472,5.85084 2.78268,7.44932 3.09278,2.00207 7.22277,1.11834 9.22485,-1.97444 2.00209,-3.09277 1.11791,-7.22303 -1.97487,-9.22512 -2.4675,-1.59712 -5.68946,-1.39144 -7.93338,0.50702 l 0.07,-0.10796 c 0,0 -66.05558,-41.94457 -66.46648,-44.27285 0.73168,-6.14178 -28.64596,-17.35669 -48.20073,-27.13062 z"
           sodipodi:nodetypes="sccccsccccss" />
      </g>
      <g
         id="g18573"
         transform="matrix(0.54068653,-0.84122415,-0.84122415,-0.54068653,-45.962825,971.78542)"
         style="opacity:0">
        <path
           id="path18569"
           style="opacity:1;fill:url(#linearGradient18575);fill-opacity:1;stroke:none;stroke-width:2;stroke-linecap:square;stroke-linejoin:bevel;stroke-dasharray:none;stroke-opacity:1;paint-order:fill markers stroke"
           d="m 708.07437,277.45893 c 2.41236,-0.66631 64.50088,40.49342 64.50088,40.49342 l 0.3353,-0.51797 c -0.81558,2.82504 0.31473,5.85092 2.7827,7.4494 3.09278,2.00208 7.22299,1.1179 9.22507,-1.97488 2.00209,-3.09278 1.11791,-7.22298 -1.97487,-9.22507 -2.46751,-1.59712 -5.68957,-1.39103 -7.93349,0.50743 l 0.0699,-0.10801 c 0,0 -62.93975,-39.94199 -63.35065,-42.27028 0.73168,-6.14178 -31.76192,-19.35955 -51.31671,-29.13349 17.08011,13.46745 42.72889,38.45924 47.66185,34.77945 z" />
        <path
           id="path18571"
           style="opacity:1;fill:#030303;fill-opacity:0.251356;stroke:none;stroke-width:2;stroke-linecap:square;stroke-linejoin:bevel;stroke-dasharray:none;stroke-opacity:1;paint-order:fill markers stroke;filter:url(#filter8424)"
           d="m 709.17757,278.01342 c 2.41236,-0.66631 64.50088,40.49342 64.50088,40.49342 l 0.3353,-0.51797 c -0.81558,2.82504 0.31473,5.85092 2.7827,7.4494 3.09278,2.00208 7.22299,1.1179 9.22507,-1.97488 2.00209,-3.09278 1.11791,-7.22298 -1.97487,-9.22507 -2.46751,-1.59712 -5.68957,-1.39103 -7.93349,0.50743 l 0.0699,-0.10801 c 0,0 -62.93975,-39.94199 -63.35065,-42.27028 0.73168,-6.14178 -31.76192,-19.35955 -51.31671,-29.13349 17.08011,13.46745 42.72889,38.45924 47.66185,34.77945 z" />
      </g>
    </g>
  </g>
</svg>
